<svg width="640" height="480" xmlns="http://www.w3.org/2000/svg"><defs><filter id="a" color-interpolation-filters="sRGB"/></defs><g stroke="#F9C948" fill="#FFF"><path d="M353.899 7.522c-43.77 0-82.489 22.756-106.568 57.76C223.22 30.66 184.724 8.195 141.237 8.195 68.17 8.195 8.957 71.48 8.957 149.569c0 19.282 3.59 37.65 10.128 54.398l.105.167c4.635 11.825 10.787 22.815 18.101 32.75l209.2 233.008c70.113-75.01 148.857-164.046 211.352-233.681 7.315-9.935 13.467-20.923 18.101-32.75l.106-.167c6.537-16.749 10.127-35.116 10.127-54.398 0-78.089-59.214-141.374-132.278-141.374z" filter="url(#a)" stroke-width="15"/><path d="M353.899 8.162c-43.77 0-82.489 22.757-106.568 57.762-24.112-34.623-62.607-57.089-106.095-57.089C68.171 8.835 8.957 72.121 8.957 150.21c0 19.282 3.59 37.651 10.129 54.398l.103.167c4.637 11.827 10.789 22.815 18.102 32.75l209.2 233.008c70.112-75.01 148.857-164.046 211.351-233.68 7.316-9.936 13.468-20.924 18.102-32.75l.106-.168c6.536-16.747 10.126-35.115 10.126-54.398 0-78.089-59.213-141.375-132.277-141.375z" stroke-width="10"/></g></svg>